<svg xmlns="http://www.w3.org/2000/svg" width="48" height="48" viewBox="0 0 48 48">
  <path fill="rgba(255,255,255,0.9)" d="M24 4c-10 0-18 8-18 18v12c0 5 3 10 8 12 2 1 4 1 6 1s4 0 6-1c5-2 8-7 8-12V22c0-10-8-18-18-18z"/>
  <path fill="rgba(255,255,255,0.9)" d="M6 34c2-4 6-6 10-6s8 2 10 6c-2 0-4 1-6 1s-4-1-6-1c-2 0-4 1-6 1s-4-1-6-1z"/>
  <ellipse fill="#111" cx="18" cy="22" rx="2" ry="3"/>
  <ellipse fill="#111" cx="30" cy="22" rx="2" ry="3"/>
  <path stroke="#111" stroke-width="2" stroke-linecap="round" d="M22 28c0 2 4 2 4 0"/>
</svg>
