<svg xmlns="http://www.w3.org/2000/svg" style="display:none">
  <symbol id="icon-bat" viewBox="0 0 64 64">
    <path fill="currentColor" d="M6 34c4-4 10-7 16-6c3-6 8-10 10-10s7 4 10 10c6-1 12 2 16 6c-5 2-9 2-12 1c0 2-1 6-6 10c-3 2-5 3-8 3s-5-1-8-3c-5-4-6-8-6-10c-3 1-7 1-12-1Z"/>
    <path d="M32 25c3 0 6 3 6 6s-3 6-6 6s-6-3-6-6s3-6 6-6Z" fill="none" stroke="currentColor" stroke-width="2"/>
  </symbol>
  <symbol id="icon-bat2" viewBox="0 0 64 64">
    <path fill="currentColor" d="M8 40c3-6 9-14 16-16l8-8l8 8c7 2 13 10 16 16c-7-2-12-2-16 0c0 3-2 7-8 10c-6-3-8-7-8-10c-4-2-9-2-16 0Z"/>
    <circle cx="32" cy="34" r="3" fill="none" stroke="currentColor" stroke-width="2"/>
  </symbol>
  <symbol id="icon-ghost" viewBox="0 0 64 64">
    <path fill="currentColor" opacity=".92" d="M32 8c-9 0-16 7-16 16v14c0 6 4 10 10 10c3 0 6-2 6-2s3 2 6 2c6 0 10-4 10-10V24c0-9-7-16-16-16Z"/>
    <path fill="currentColor" d="M16 42c2 4 6 8 10 8c3 0 6-2 6-2s3 2 6 2c4 0 8-4 10-8c-3 2-6 3-10 2c-3 3-9 3-12 0c-4 1-7 0-10-2Z"/>
    <circle cx="26" cy="28" r="3" fill="#111"/>
    <circle cx="38" cy="28" r="3" fill="#111"/>
    <ellipse cx="32" cy="36" rx="3.5" ry="2.5" fill="#111"/>
  </symbol>
  <symbol id="icon-ghost2" viewBox="0 0 64 64">
    <path fill="currentColor" opacity=".9" d="M32 6c-10 0-18 8-18 18v16c0 7 5 12 12 12c3 0 6-1 6-1s3 1 6 1c7 0 12-5 12-12V24c0-10-8-18-18-18Z"/>
    <path fill="currentColor" d="M14 40c2 6 7 10 12 10c3 0 6-1 6-1s3 1 6 1c5 0 10-4 12-10c-4 2-7 3-12 2c-4 3-12 3-16 0c-5 1-8 0-12-2Z"/>
    <ellipse cx="26" cy="28" rx="3" ry="4" fill="#111"/>
    <ellipse cx="38" cy="28" rx="3" ry="4" fill="#111"/>
    <path d="M30 36c0 2 4 2 4 0" stroke="#111" stroke-width="2" stroke-linecap="round"/>
  </symbol>
</svg>

